<?xml version="1.0" encoding="utf-8"?>
<!-- Generator: Adobe Illustrator 16.0.2, SVG Export Plug-In . SVG Version: 6.00 Build 0)  -->
<!DOCTYPE svg PUBLIC "-//W3C//DTD SVG 1.1//EN" "http://www.w3.org/Graphics/SVG/1.1/DTD/svg11.dtd">
<svg version="1.1" id="Layer_1" xmlns="http://www.w3.org/2000/svg" xmlns:xlink="http://www.w3.org/1999/xlink" x="0px" y="0px"
	 width="157px" height="56px" viewBox="0 0 157 56" enable-background="new 0 0 157 56" xml:space="preserve">
<g>
	<linearGradient id="SVGID_1_" gradientUnits="userSpaceOnUse" x1="31.189" y1="9.8628" x2="2.6514" y2="37.3356">
		<stop  offset="0" style="stop-color:#28AECE"/>
		<stop  offset="1" style="stop-color:#800C0D"/>
	</linearGradient>
	<path fill="url(#SVGID_1_)" d="M41.481,18.657c-0.946,0.898-2.223,1.448-3.625,1.448c-1.184,0-2.275-0.391-3.155-1.05
		c-0.09-0.067-0.176-0.138-0.261-0.208c-0.105-0.09-0.207-0.185-0.303-0.281c-0.001-0.002-0.002-0.002-0.004-0.002
		c-0.021-0.022-0.042-0.043-0.063-0.065c-2.217-1.995-5.136-3.226-8.34-3.276c-0.17-0.007-0.341-0.01-0.512-0.01
		c-8.972,0-16.244,9.147-16.244,20.432c0,4.066,0.944,7.858,2.575,11.041C5.867,42.43,2.191,35.644,2.191,28
		c0-4.509,1.279-8.72,3.494-12.288c4.137-3.509,9.493-5.626,15.344-5.626c6.554,0,12.487,2.657,16.784,6.952
		C37.813,17.037,39.243,18.635,41.481,18.657z"/>
</g>
<linearGradient id="SVGID_2_" gradientUnits="userSpaceOnUse" x1="35.5117" y1="56.1719" x2="8.2756" y2="12.8352">
	<stop  offset="0" style="stop-color:#28AECE"/>
	<stop  offset="1" style="stop-color:#800C0D"/>
</linearGradient>
<path fill="url(#SVGID_2_)" d="M43.142,41.199c0,1.339-0.499,2.562-1.318,3.496c-0.23,0.261-0.485,0.499-0.764,0.71
	c-0.802,0.719-1.653,1.379-2.548,1.979c-3.712,2.494-8.18,3.948-12.987,3.948c-5.242,0-10.081-1.729-13.977-4.648
	c-1.371-3.763-2.366-6.91-2.366-10.977c0-11.285,7.063-20.497,16.035-20.497c0.171,0,0.342,0.003,0.512,0.01
	c-0.069,0-0.137-0.002-0.205-0.002c-7.057,0-12.78,5.722-12.78,12.78c0,7.056,5.723,12.78,12.78,12.78
	c3.249,0,6.215-1.215,8.469-3.212c0.158-0.168,0.326-0.325,0.503-0.47c0.913-0.748,2.08-1.194,3.351-1.194
	c1.371,0,2.622,0.521,3.562,1.375C42.473,38.248,43.142,39.645,43.142,41.199z"/>
<path fill="none" stroke="#F4136B" stroke-width="3" stroke-miterlimit="10" d="M37.811,17.037"/>
<linearGradient id="SVGID_3_" gradientUnits="userSpaceOnUse" x1="46.9233" y1="16.8652" x2="4.9906" y2="7.5416">
	<stop  offset="0" style="stop-color:#DEF3F6"/>
	<stop  offset="1" style="stop-color:#31ADC7"/>
</linearGradient>
<path fill="url(#SVGID_3_)" d="M43.142,14.792c0,1.523-0.638,2.897-1.66,3.865c-2.238-0.021-3.669-1.62-3.669-1.62
	c-4.296-4.294-10.23-6.952-16.784-6.952c-5.851,0-11.207,2.117-15.344,5.626C9.8,9.08,17.146,4.667,25.524,4.667
	c5.896,0,11.282,2.188,15.39,5.796c0.378,0.27,0.722,0.589,1.017,0.947C42.687,12.328,43.142,13.507,43.142,14.792z"/>
<path fill="#F9F9F9" d="M39.945,10.296c0,0,1.157,0.301,1.606,1.465c0.45,1.166-0.477,1.177-1.075,0.119c0,0-0.525-0.643-1.023-1.03
	C38.852,10.383,38.564,9.751,39.945,10.296z"/>
<path fill="#F9F9F9" d="M42.506,15.335c0,0.98-0.326,1.773-0.729,1.773c-0.403,0,0.17-0.847,0.17-1.827
	c0-0.978-0.573-1.718-0.17-1.718C42.18,13.564,42.506,14.357,42.506,15.335z"/>
<path fill="#F9F9F9" d="M40.825,13.799c0.185,0.762-0.05,1.808-0.583,1.938c-0.534,0.129-0.718-0.523-0.902-1.285
	c-0.185-0.762-0.301-1.345,0.232-1.474C40.105,12.848,40.64,13.037,40.825,13.799z"/>
</svg>
