<?xml version="1.0" encoding="utf-8"?>
<!-- Generator: Adobe Illustrator 16.0.2, SVG Export Plug-In . SVG Version: 6.00 Build 0)  -->
<!DOCTYPE svg PUBLIC "-//W3C//DTD SVG 1.1//EN" "http://www.w3.org/Graphics/SVG/1.1/DTD/svg11.dtd">
<svg version="1.1" id="Layer_1" xmlns="http://www.w3.org/2000/svg" xmlns:xlink="http://www.w3.org/1999/xlink" x="0px" y="0px"
	 width="1024px" height="1024px" viewBox="0 0 1024 1024" enable-background="new 0 0 1024 1024" xml:space="preserve">
<g>
	<linearGradient id="SVGID_1_" gradientUnits="userSpaceOnUse" x1="604.792" y1="264.8657" x2="202.8123" y2="651.8468">
		<stop  offset="0" style="stop-color:#28AECE"/>
		<stop  offset="1" style="stop-color:#800C0D"/>
	</linearGradient>
	<path fill="url(#SVGID_1_)" d="M749.78,388.74c-13.33,12.65-31.311,20.39-51.08,20.39c-16.67,0-32.04-5.51-44.45-14.8
		c-1.26-0.94-2.48-1.92-3.67-2.93c-1.48-1.26-2.91-2.59-4.28-3.96c-0.01-0.02-0.02-0.03-0.04-0.03c-0.3-0.3-0.6-0.6-0.899-0.91
		c-31.23-28.1-72.33-45.44-117.48-46.15c-2.39-0.09-4.8-0.14-7.21-0.14c-126.37,0-228.81,128.85-228.81,287.79
		c0,57.3,13.31,110.69,36.27,155.54c-80.02-59.95-131.8-155.53-131.8-263.21c0-63.51,18.01-122.81,49.22-173.08
		C303.82,297.81,379.27,268,461.67,268c92.32,0,175.9,37.42,236.41,97.92C698.08,365.92,718.25,388.43,749.78,388.74z"/>
</g>
<linearGradient id="SVGID_2_" gradientUnits="userSpaceOnUse" x1="665.7139" y1="917.2285" x2="281.7154" y2="306.2299">
	<stop  offset="0" style="stop-color:#28AECE"/>
	<stop  offset="1" style="stop-color:#800C0D"/>
</linearGradient>
<path fill="url(#SVGID_2_)" d="M773.16,706.25c0,18.88-7.021,36.1-18.58,49.24c-3.25,3.689-6.84,7.05-10.75,10.04
	c-11.29,10.09-23.28,19.399-35.9,27.87C655.64,828.51,592.72,849,525,849c-73.84,0-142-24.35-196.87-65.46
	c-22.96-44.85-36.27-98.24-36.27-155.54c0-158.94,102.44-287.79,228.81-287.79c2.41,0,4.82,0.05,7.21,0.14
	c-0.96-0.01-1.92-0.02-2.88-0.02c-99.41,0-180,80.59-180,180s80.59,180,180,180c45.77,0,87.54-17.09,119.3-45.23
	c2.22-2.35,4.58-4.569,7.08-6.609c12.86-10.521,29.29-16.83,47.19-16.83c19.319,0,36.93,7.35,50.18,19.39
	C763.74,664.7,773.16,684.37,773.16,706.25z"/>
<g>
	<path fill="#FFFFFF" d="M327.951,783.629c0,0-1.039-1.964-2.986-5.644c-0.482-0.923-1.041-1.942-1.619-3.085
		c-0.564-1.151-1.181-2.407-1.847-3.766c-0.666-1.36-1.381-2.822-2.144-4.382c-0.706-1.585-1.455-3.269-2.247-5.048
		c-1.633-3.54-3.219-7.552-5.003-11.901c-0.886-2.177-1.698-4.484-2.601-6.856c-0.442-1.189-0.893-2.401-1.351-3.634
		c-0.424-1.244-0.854-2.51-1.292-3.796c-1.802-5.13-3.494-10.665-5.208-16.522c-0.811-2.941-1.642-5.962-2.416-9.071
		c-0.727-3.121-1.507-6.309-2.237-9.578c-2.862-13.091-5.187-27.458-6.609-42.769c-0.306-3.83-0.727-7.709-0.897-11.65
		c-0.111-1.971-0.224-3.952-0.336-5.945c-0.125-1.994-0.13-4.003-0.201-6.021c-0.054-2.039-0.108-4.09-0.162-6.15
		c0.032-2.024,0.063-4.059,0.096-6.103c0.096-4.097,0.037-8.188,0.349-12.42c0.118-2.104,0.236-4.218,0.355-6.34
		c0.142-2.118,0.184-4.264,0.429-6.378c0.411-4.246,0.825-8.521,1.241-12.823c0.589-4.283,1.182-8.593,1.778-12.923
		c0.661-4.321,1.514-8.635,2.268-12.981c3.356-17.326,8.063-34.694,14.197-51.568c6.257-16.826,13.907-33.14,22.789-48.425
		c8.875-15.288,18.981-29.543,29.966-42.317c10.934-12.824,22.937-23.972,35.168-33.383c12.234-9.421,24.75-17.051,36.821-22.986
		c1.516-0.728,3.017-1.448,4.501-2.16c0.742-0.356,1.479-0.709,2.213-1.062c0.743-0.332,1.5-0.623,2.242-0.934
		c2.98-1.212,5.892-2.397,8.73-3.552c5.824-1.919,11.283-3.905,16.598-5.171c1.316-0.352,2.612-0.698,3.886-1.039
		c0.637-0.168,1.269-0.335,1.895-0.5c0.635-0.129,1.265-0.256,1.889-0.383c2.494-0.505,4.898-0.991,7.208-1.459
		c2.296-0.529,4.553-0.75,6.687-1.065c2.137-0.295,4.174-0.576,6.108-0.843c7.774-0.733,13.891-1.063,18.068-0.967
		c4.168-0.013,6.392-0.02,6.392-0.02v0.4c0,0-2.216,0.072-6.372,0.207c-1.038,0.034-2.198,0.071-3.476,0.113
		c-0.638,0.022-1.306,0.046-2.002,0.071c-0.693,0.067-1.416,0.136-2.166,0.208c-2.997,0.316-6.457,0.562-10.303,1.054
		c-1.916,0.307-3.934,0.631-6.05,0.971c-2.113,0.36-4.345,0.626-6.614,1.203c-2.281,0.514-4.655,1.049-7.118,1.604
		c-0.616,0.139-1.237,0.278-1.863,0.42c-0.618,0.177-1.24,0.357-1.868,0.538c-1.255,0.365-2.532,0.737-3.829,1.114
		c-5.235,1.368-10.6,3.457-16.314,5.477c-2.788,1.189-5.648,2.408-8.576,3.657c-0.729,0.317-1.473,0.615-2.203,0.953
		c-0.721,0.358-1.445,0.718-2.174,1.08c-1.458,0.724-2.931,1.456-4.42,2.196c-11.85,6.028-24.106,13.732-36.055,23.196
		c-11.955,9.451-23.593,20.644-34.364,33.311c-10.777,12.661-20.686,26.783-29.375,41.925c-8.695,15.139-16.172,31.291-22.27,47.943
		c-6.126,16.644-10.879,33.788-14.282,50.914c-0.767,4.298-1.633,8.562-2.309,12.834c-0.611,4.284-1.22,8.546-1.824,12.782
		c-0.434,4.258-0.865,8.489-1.292,12.69c-0.255,2.098-0.304,4.203-0.455,6.292c-0.128,2.092-0.255,4.175-0.382,6.249
		c-0.331,4.143-0.293,8.278-0.41,12.364c-0.042,2.043-0.085,4.077-0.127,6.102c0.026,2.02,0.053,4.029,0.079,6.028
		c0.043,2.001,0.021,3.993,0.117,5.97c0.085,1.978,0.169,3.943,0.253,5.897c0.115,3.911,0.479,7.761,0.73,11.564
		c1.201,15.202,3.311,29.492,5.974,42.53c2.658,13.043,5.869,24.831,9.154,35.131c0.407,1.289,0.808,2.558,1.202,3.805
		c0.429,1.235,0.85,2.45,1.263,3.644c0.846,2.38,1.604,4.695,2.437,6.882c1.679,4.367,3.17,8.398,4.718,11.96
		c0.75,1.79,1.46,3.485,2.127,5.079c0.715,1.574,1.385,3.049,2.008,4.421c0.624,1.372,1.2,2.643,1.729,3.806
		c0.543,1.157,1.071,2.193,1.525,3.129c1.836,3.735,2.816,5.727,2.816,5.727L327.951,783.629z"/>
</g>
<path fill="none" stroke="#F4136B" stroke-width="3" stroke-miterlimit="10" d="M698.076,365.925"/>
<linearGradient id="SVGID_3_" gradientUnits="userSpaceOnUse" x1="826.4443" y1="363.5015" x2="235.7772" y2="232.1675">
	<stop  offset="0" style="stop-color:#DEF3F6"/>
	<stop  offset="1" style="stop-color:#31ADC7"/>
</linearGradient>
<path fill="url(#SVGID_3_)" d="M773.16,334.31c0,21.45-8.99,40.79-23.38,54.43c-31.53-0.31-51.7-22.82-51.7-22.82
	C637.57,305.42,553.99,268,461.67,268c-82.4,0-157.85,29.81-216.12,79.25c57.96-93.4,161.44-155.59,279.45-155.59
	c83.06,0,158.92,30.83,216.78,81.66c5.33,3.8,10.16,8.28,14.319,13.34C766.76,299.6,773.16,316.2,773.16,334.31z"/>
<path fill="#F9F9F9" d="M728.131,270.96c0,0,16.312,4.244,22.641,20.651c6.33,16.407-6.728,16.584-15.158,1.666
	c0,0-7.386-9.05-14.421-14.512C712.74,272.202,708.677,263.289,728.131,270.96z"/>
<path fill="#F9F9F9" d="M764.199,341.962c0,13.786-4.596,24.962-10.266,24.962s2.399-11.929,2.399-25.715S748.264,317,753.934,317
	S764.199,328.176,764.199,341.962z"/>
<path fill="#F9F9F9" d="M740.52,320.311c2.604,10.735-0.702,25.466-8.217,27.289s-10.104-7.364-12.706-18.099
	c-2.604-10.735-4.235-18.952,3.279-20.774S737.917,309.576,740.52,320.311z"/>
</svg>
